<mxfile host="app.diagrams.net" modified="2024-05-17T22:49:28.366Z" agent="Mozilla/5.0 (Windows NT 10.0; Win64; x64) AppleWebKit/537.36 (KHTML, like Gecko) Chrome/124.0.0.0 Safari/537.36" etag="E_Vt-GyUBVR8_yrkxBcx" version="24.4.0" type="device">
  <diagram name="Página-1" id="MlYBD084rtCha4FsFRDw">
    <mxGraphModel dx="1114" dy="600" grid="1" gridSize="10" guides="1" tooltips="1" connect="1" arrows="1" fold="1" page="1" pageScale="1" pageWidth="827" pageHeight="1169" math="0" shadow="0">
      <root>
        <mxCell id="0" />
        <mxCell id="1" parent="0" />
        <mxCell id="hkmBwuYPKQIMNyOLkPoZ-3" style="edgeStyle=orthogonalEdgeStyle;rounded=0;orthogonalLoop=1;jettySize=auto;html=1;exitX=1;exitY=0.5;exitDx=0;exitDy=0;entryX=0;entryY=0.5;entryDx=0;entryDy=0;" edge="1" parent="1" source="hkmBwuYPKQIMNyOLkPoZ-1" target="hkmBwuYPKQIMNyOLkPoZ-2">
          <mxGeometry relative="1" as="geometry" />
        </mxCell>
        <mxCell id="hkmBwuYPKQIMNyOLkPoZ-1" value="" style="ellipse;whiteSpace=wrap;html=1;aspect=fixed;fillColor=#000000;" vertex="1" parent="1">
          <mxGeometry y="75" width="50" height="50" as="geometry" />
        </mxCell>
        <mxCell id="hkmBwuYPKQIMNyOLkPoZ-5" style="edgeStyle=orthogonalEdgeStyle;rounded=0;orthogonalLoop=1;jettySize=auto;html=1;exitX=1;exitY=0.5;exitDx=0;exitDy=0;entryX=0;entryY=0.5;entryDx=0;entryDy=0;" edge="1" parent="1" source="hkmBwuYPKQIMNyOLkPoZ-2" target="hkmBwuYPKQIMNyOLkPoZ-4">
          <mxGeometry relative="1" as="geometry" />
        </mxCell>
        <mxCell id="hkmBwuYPKQIMNyOLkPoZ-2" value="Acessar área para plano de reposição" style="rounded=1;whiteSpace=wrap;html=1;" vertex="1" parent="1">
          <mxGeometry x="160" y="70" width="120" height="60" as="geometry" />
        </mxCell>
        <mxCell id="hkmBwuYPKQIMNyOLkPoZ-14" style="edgeStyle=orthogonalEdgeStyle;rounded=0;orthogonalLoop=1;jettySize=auto;html=1;exitX=1;exitY=0.5;exitDx=0;exitDy=0;entryX=0;entryY=0.5;entryDx=0;entryDy=0;" edge="1" parent="1" source="hkmBwuYPKQIMNyOLkPoZ-4" target="hkmBwuYPKQIMNyOLkPoZ-9">
          <mxGeometry relative="1" as="geometry" />
        </mxCell>
        <mxCell id="hkmBwuYPKQIMNyOLkPoZ-4" value="Preencher formulário com planos de reposição de aula" style="rounded=1;whiteSpace=wrap;html=1;" vertex="1" parent="1">
          <mxGeometry x="390" y="70" width="120" height="60" as="geometry" />
        </mxCell>
        <mxCell id="hkmBwuYPKQIMNyOLkPoZ-25" style="edgeStyle=orthogonalEdgeStyle;rounded=0;orthogonalLoop=1;jettySize=auto;html=1;exitX=0.5;exitY=1;exitDx=0;exitDy=0;entryX=0.5;entryY=0;entryDx=0;entryDy=0;" edge="1" parent="1" source="hkmBwuYPKQIMNyOLkPoZ-7" target="hkmBwuYPKQIMNyOLkPoZ-23">
          <mxGeometry relative="1" as="geometry" />
        </mxCell>
        <mxCell id="hkmBwuYPKQIMNyOLkPoZ-7" value="Enviar formulário" style="rounded=1;whiteSpace=wrap;html=1;" vertex="1" parent="1">
          <mxGeometry x="770" y="70" width="120" height="60" as="geometry" />
        </mxCell>
        <mxCell id="hkmBwuYPKQIMNyOLkPoZ-15" style="edgeStyle=orthogonalEdgeStyle;rounded=0;orthogonalLoop=1;jettySize=auto;html=1;exitX=1;exitY=0.5;exitDx=0;exitDy=0;entryX=0;entryY=0.5;entryDx=0;entryDy=0;" edge="1" parent="1" source="hkmBwuYPKQIMNyOLkPoZ-9" target="hkmBwuYPKQIMNyOLkPoZ-7">
          <mxGeometry relative="1" as="geometry" />
        </mxCell>
        <mxCell id="hkmBwuYPKQIMNyOLkPoZ-16" value="" style="edgeStyle=orthogonalEdgeStyle;rounded=0;orthogonalLoop=1;jettySize=auto;html=1;" edge="1" parent="1" source="hkmBwuYPKQIMNyOLkPoZ-9" target="hkmBwuYPKQIMNyOLkPoZ-11">
          <mxGeometry relative="1" as="geometry" />
        </mxCell>
        <mxCell id="hkmBwuYPKQIMNyOLkPoZ-9" value="" style="rhombus;whiteSpace=wrap;html=1;" vertex="1" parent="1">
          <mxGeometry x="610" y="70" width="60" height="60" as="geometry" />
        </mxCell>
        <mxCell id="hkmBwuYPKQIMNyOLkPoZ-19" style="edgeStyle=orthogonalEdgeStyle;rounded=0;orthogonalLoop=1;jettySize=auto;html=1;exitX=0;exitY=0.5;exitDx=0;exitDy=0;entryX=0.5;entryY=1;entryDx=0;entryDy=0;" edge="1" parent="1" source="hkmBwuYPKQIMNyOLkPoZ-11" target="hkmBwuYPKQIMNyOLkPoZ-4">
          <mxGeometry relative="1" as="geometry" />
        </mxCell>
        <mxCell id="hkmBwuYPKQIMNyOLkPoZ-11" value="Exibir mensagem de erro" style="rounded=1;whiteSpace=wrap;html=1;" vertex="1" parent="1">
          <mxGeometry x="580" y="230" width="120" height="60" as="geometry" />
        </mxCell>
        <mxCell id="hkmBwuYPKQIMNyOLkPoZ-20" value="Conexão estável" style="rounded=0;whiteSpace=wrap;html=1;strokeColor=none;" vertex="1" parent="1">
          <mxGeometry x="660" y="60" width="100" height="20" as="geometry" />
        </mxCell>
        <mxCell id="hkmBwuYPKQIMNyOLkPoZ-21" value="Conexão instável" style="rounded=0;whiteSpace=wrap;html=1;strokeColor=none;" vertex="1" parent="1">
          <mxGeometry x="650" y="200" width="100" height="20" as="geometry" />
        </mxCell>
        <mxCell id="hkmBwuYPKQIMNyOLkPoZ-22" value="" style="ellipse;whiteSpace=wrap;html=1;aspect=fixed;perimeterSpacing=0;" vertex="1" parent="1">
          <mxGeometry x="805" y="235" width="50" height="50" as="geometry" />
        </mxCell>
        <mxCell id="hkmBwuYPKQIMNyOLkPoZ-23" value="" style="ellipse;whiteSpace=wrap;html=1;aspect=fixed;fillColor=#000000;" vertex="1" parent="1">
          <mxGeometry x="810" y="240" width="40" height="40" as="geometry" />
        </mxCell>
      </root>
    </mxGraphModel>
  </diagram>
</mxfile>
